<svg width="12" height="12" viewBox="0 0 12 12" fill="none" xmlns="http://www.w3.org/2000/svg">
<g id="logo/btc">
<path id="Shape" opacity="0.2" d="M11.8201 7.45155C11.0187 10.6659 7.76299 12.6219 4.54831 11.8205C1.33512 11.0191 -0.621069 7.76336 0.180494 4.54924C0.981493 1.33455 4.23706 -0.621826 7.45081 0.179549C10.6653 0.980924 12.6213 4.23705 11.8199 7.45155H11.8201Z" fill="#F7931A"/>
<path id="Shape_2" fill-rule="evenodd" clip-rule="evenodd" d="M8.75415 5.05593C8.8746 4.2495 8.2606 3.81599 7.42102 3.52678L7.69337 2.43437L7.02822 2.26865L6.76307 3.33228C6.58845 3.28872 6.40891 3.24762 6.2305 3.2069L6.49755 2.13627L5.83297 1.97055L5.56044 3.06258C5.41574 3.02963 5.2737 2.99705 5.13582 2.96277L5.13658 2.95937L4.21954 2.73039L4.04265 3.44061C4.04265 3.44061 4.53601 3.55368 4.5256 3.56068C4.79491 3.62792 4.84378 3.80614 4.83544 3.94742L4.52522 5.19192C4.54378 5.19665 4.56783 5.20347 4.59435 5.21408L4.52427 5.19665L4.08924 6.94C4.05628 7.02182 3.97276 7.14455 3.78451 7.09796C3.79114 7.10762 3.30118 6.97731 3.30118 6.97731L2.97107 7.73867L3.83659 7.95439C3.93428 7.97887 4.03078 8.00404 4.12623 8.02895L4.12631 8.02897C4.18812 8.04509 4.24949 8.0611 4.31045 8.07673L4.03526 9.18184L4.69946 9.34755L4.97218 8.25438C5.15343 8.30363 5.32957 8.34908 5.50191 8.39188L5.23033 9.47994L5.89528 9.64566L6.17047 8.54283C7.30436 8.75741 8.15719 8.67086 8.51571 7.64549C8.80491 6.81974 8.5015 6.34342 7.90492 6.03263C8.33938 5.93206 8.66665 5.64627 8.75396 5.05593H8.75415ZM7.23466 7.18641C7.04589 7.94429 5.85935 7.6307 5.31694 7.48735C5.26837 7.47451 5.22497 7.46304 5.1879 7.45383L5.55305 5.99002C5.59835 6.00132 5.6537 6.01374 5.71639 6.02781C6.27754 6.15373 7.42752 6.41179 7.23485 7.18641H7.23466ZM5.8292 5.34855C6.28179 5.46929 7.26831 5.73248 7.44017 5.044C7.61587 4.33967 6.65657 4.12738 6.18807 4.0237C6.1354 4.01205 6.08893 4.00177 6.05098 3.99231L5.71992 5.31995C5.75125 5.32775 5.78801 5.33756 5.8292 5.34855Z" fill="#F7931A"/>
</g>
</svg>
